<svg xmlns="http://www.w3.org/2000/svg" height="512pt" version="1.1" viewBox="0 0 512 512" width="512pt">
  <g id="surface1">
    <path d="M 512 256 C 512 397.386719 397.386719 512 256 512 C 114.613281 512 0 397.386719 0 256 C 0 114.613281 114.613281 0 256 0 C 397.386719 0 512 114.613281 512 256 Z M 512 256 " style=" stroke:none;fill-rule:nonzero;fill:rgb(20%,22.352941%,25.098039%);fill-opacity:1;"/>
    <path d="M 512 256 C 512 234.988281 509.449219 214.578125 504.675781 195.035156 L 410.65625 101.015625 L 363.085938 112.121094 L 327.964844 77 L 321.308594 190.953125 L 207.355469 77 L 206.210938 133.140625 L 175.800781 102.730469 L 100.179688 178.351562 L 120.785156 198.960938 L 77 207.355469 L 188.3125 318.667969 L 77 327.964844 L 134.144531 385.105469 L 100.179688 429.144531 L 167.210938 496.171875 C 194.871094 506.402344 224.78125 512 256 512 C 397.386719 512 512 397.386719 512 256 Z M 512 256 " style=" stroke:none;fill-rule:nonzero;fill:rgb(13.72549%,15.294118%,16.862745%);fill-opacity:1;"/>
    <path d="M 435 207.355469 L 435 184.035156 L 327.964844 184.035156 L 327.964844 77 L 304.644531 77 L 304.644531 184.035156 L 207.351562 184.035156 L 207.351562 77 L 184.035156 77 L 184.035156 184.035156 L 77 184.035156 L 77 207.355469 L 184.035156 207.355469 L 184.035156 304.644531 L 77 304.644531 L 77 327.964844 L 184.035156 327.964844 L 184.035156 435 L 207.355469 435 L 207.355469 327.964844 L 304.644531 327.964844 L 304.644531 435 L 327.964844 435 L 327.964844 327.964844 L 435 327.964844 L 435 304.644531 L 327.964844 304.644531 L 327.964844 207.355469 Z M 304.644531 304.644531 L 207.355469 304.644531 L 207.355469 207.355469 L 304.644531 207.355469 Z M 304.644531 304.644531 " style=" stroke:none;fill-rule:nonzero;fill:rgb(2.352941%,80%,67.058824%);fill-opacity:1;"/>
    <path d="M 435 207.355469 L 435 184.035156 L 327.964844 184.035156 L 327.964844 77 L 304.644531 77 L 304.644531 184.035156 L 255.761719 184.035156 L 255.761719 207.355469 L 304.644531 207.355469 L 304.644531 304.644531 L 255.761719 304.644531 L 255.761719 327.964844 L 304.644531 327.964844 L 304.644531 435 L 327.964844 435 L 327.964844 327.964844 L 435 327.964844 L 435 304.644531 L 327.964844 304.644531 L 327.964844 207.355469 Z M 435 207.355469 " style=" stroke:none;fill-rule:nonzero;fill:rgb(0%,74.117647%,61.568627%);fill-opacity:1;"/>
    <path d="M 256 299.046875 C 232 299.046875 212.476562 279.519531 212.476562 255.519531 C 212.476562 231.523438 232 211.996094 256 211.996094 C 280 211.996094 299.523438 231.523438 299.523438 255.519531 C 299.523438 279.519531 280 299.046875 256 299.046875 Z M 256 232.996094 C 243.578125 232.996094 233.476562 243.101562 233.476562 255.519531 C 233.476562 267.941406 243.578125 278.046875 256 278.046875 C 268.421875 278.046875 278.523438 267.941406 278.523438 255.519531 C 278.523438 243.101562 268.421875 232.996094 256 232.996094 Z M 256 232.996094 " style=" stroke:none;fill-rule:nonzero;fill:rgb(99.607843%,41.568627%,8.627451%);fill-opacity:1;"/>
    <path d="M 256 211.996094 C 255.921875 211.996094 255.84375 212.003906 255.761719 212.003906 L 255.761719 233.003906 C 255.84375 233.003906 255.921875 232.996094 256 232.996094 C 268.421875 232.996094 278.523438 243.101562 278.523438 255.519531 C 278.523438 267.941406 268.417969 278.046875 256 278.046875 C 255.921875 278.046875 255.84375 278.039062 255.761719 278.039062 L 255.761719 299.039062 C 255.84375 299.039062 255.921875 299.046875 256 299.046875 C 280 299.046875 299.523438 279.519531 299.523438 255.519531 C 299.523438 231.523438 280 211.996094 256 211.996094 Z M 256 211.996094 " style=" stroke:none;fill-rule:nonzero;fill:rgb(98.039216%,36.470588%,5.882353%);fill-opacity:1;"/>
    <path d="M 379.820312 175.226562 C 355.820312 175.226562 336.296875 155.699219 336.296875 131.699219 C 336.296875 107.703125 355.820312 88.175781 379.820312 88.175781 C 403.820312 88.175781 423.34375 107.703125 423.34375 131.699219 C 423.34375 155.699219 403.820312 175.226562 379.820312 175.226562 Z M 379.820312 109.175781 C 367.398438 109.175781 357.296875 119.28125 357.296875 131.699219 C 357.296875 144.121094 367.402344 154.226562 379.820312 154.226562 C 392.238281 154.226562 402.34375 144.121094 402.34375 131.699219 C 402.34375 119.28125 392.238281 109.175781 379.820312 109.175781 Z M 379.820312 109.175781 " style=" stroke:none;fill-rule:nonzero;fill:rgb(98.039216%,36.470588%,5.882353%);fill-opacity:1;"/>
    <path d="M 426.230469 225.613281 L 411.382812 210.765625 L 380.996094 241.152344 L 350.613281 210.765625 L 335.761719 225.613281 L 366.148438 256 L 335.761719 286.386719 L 350.613281 301.234375 L 380.996094 270.847656 L 411.382812 301.234375 L 426.230469 286.386719 L 395.847656 256 Z M 426.230469 225.613281 " style=" stroke:none;fill-rule:nonzero;fill:rgb(100%,76.078431%,0%);fill-opacity:1;"/>
    <path d="M 175.800781 102.730469 L 160.949219 87.882812 L 130.566406 118.269531 L 100.179688 87.882812 L 85.328125 102.730469 L 115.714844 133.117188 L 85.328125 163.503906 L 100.179688 178.351562 L 130.566406 147.96875 L 160.949219 178.351562 L 175.800781 163.503906 L 145.414062 133.117188 Z M 175.800781 102.730469 " style=" stroke:none;fill-rule:nonzero;fill:rgb(100%,85.490196%,0%);fill-opacity:1;"/>
    <path d="M 175.800781 353.523438 L 160.949219 338.675781 L 130.566406 369.058594 L 100.179688 338.675781 L 85.328125 353.523438 L 115.714844 383.910156 L 85.328125 414.292969 L 100.179688 429.144531 L 130.566406 398.757812 L 160.949219 429.144531 L 175.800781 414.292969 L 145.414062 383.910156 Z M 175.800781 353.523438 " style=" stroke:none;fill-rule:nonzero;fill:rgb(100%,85.490196%,0%);fill-opacity:1;"/>
  </g>
</svg>